<svg xmlns="http://www.w3.org/2000/svg" xmlns:xlink="http://www.w3.org/1999/xlink" width="2000" zoomAndPan="magnify" viewBox="0 0 1500 1499.999933" height="2000" preserveAspectRatio="xMidYMid meet" version="1.0"><defs><filter x="0%" y="0%" width="100%" height="100%" id="0c0bd63be3"><feColorMatrix values="0 0 0 0 1 0 0 0 0 1 0 0 0 0 1 0 0 0 1 0" color-interpolation-filters="sRGB"/></filter><g/><clipPath id="cf91dc9d46"><rect x="0" width="367" y="0" height="612"/></clipPath><clipPath id="9d9fbb368b"><path d="M 545.988281 321.972656 L 917.988281 321.972656 L 917.988281 693.972656 L 545.988281 693.972656 Z M 545.988281 321.972656 " clip-rule="nonzero"/></clipPath><clipPath id="179ea794dc"><path d="M 0.988281 0.972656 L 372.648438 0.972656 L 372.648438 372.972656 L 0.988281 372.972656 Z M 0.988281 0.972656 " clip-rule="nonzero"/></clipPath><clipPath id="1f157fdf0f"><rect x="0" width="373" y="0" height="373"/></clipPath><clipPath id="510a825ff7"><rect x="0" width="431" y="0" height="54"/></clipPath><clipPath id="b1292668fb"><path d="M 0.75 0.625 L 431.984375 0.625 L 431.984375 144.371094 L 0.75 144.371094 Z M 0.75 0.625 " clip-rule="nonzero"/></clipPath><clipPath id="8f5ea1c384"><path d="M 0.75 0.625 L 431.984375 0.625 L 431.984375 144.371094 L 0.75 144.371094 Z M 0.75 0.625 " clip-rule="nonzero"/></clipPath><clipPath id="82ed6c0fc0"><path d="M 108.558594 0.625 L 321.78125 0.625 L 321.78125 144.371094 L 108.558594 144.371094 Z M 108.558594 0.625 " clip-rule="nonzero"/></clipPath><linearGradient x1="21.39102" gradientTransform="matrix(2.392829, 0, 0, 2.39535, 57.372385, 58.124178)" y1="5.5" x2="110.500002" gradientUnits="userSpaceOnUse" y2="5.5" id="57f053f859"><stop stop-opacity="1" stop-color="rgb(80.389404%, 100%, 84.709167%)" offset="0"/><stop stop-opacity="1" stop-color="rgb(80.389404%, 100%, 84.709167%)" offset="0.25"/><stop stop-opacity="1" stop-color="rgb(80.389404%, 100%, 84.709167%)" offset="0.265625"/><stop stop-opacity="1" stop-color="rgb(80.290222%, 99.876404%, 84.776306%)" offset="0.273438"/><stop stop-opacity="1" stop-color="rgb(80.001831%, 99.5224%, 84.97467%)" offset="0.277344"/><stop stop-opacity="1" stop-color="rgb(79.812622%, 99.290466%, 85.10437%)" offset="0.28125"/><stop stop-opacity="1" stop-color="rgb(79.621887%, 99.057007%, 85.23407%)" offset="0.285156"/><stop stop-opacity="1" stop-color="rgb(79.432678%, 98.825073%, 85.36377%)" offset="0.289063"/><stop stop-opacity="1" stop-color="rgb(79.243469%, 98.59314%, 85.491943%)" offset="0.292969"/><stop stop-opacity="1" stop-color="rgb(79.05426%, 98.361206%, 85.621643%)" offset="0.296875"/><stop stop-opacity="1" stop-color="rgb(78.865051%, 98.127747%, 85.751343%)" offset="0.300781"/><stop stop-opacity="1" stop-color="rgb(78.675842%, 97.895813%, 85.881042%)" offset="0.304688"/><stop stop-opacity="1" stop-color="rgb(78.486633%, 97.662354%, 86.010742%)" offset="0.308594"/><stop stop-opacity="1" stop-color="rgb(78.297424%, 97.43042%, 86.140442%)" offset="0.3125"/><stop stop-opacity="1" stop-color="rgb(78.108215%, 97.198486%, 86.268616%)" offset="0.316406"/><stop stop-opacity="1" stop-color="rgb(77.919006%, 96.966553%, 86.398315%)" offset="0.320312"/><stop stop-opacity="1" stop-color="rgb(77.729797%, 96.733093%, 86.528015%)" offset="0.324219"/><stop stop-opacity="1" stop-color="rgb(77.540588%, 96.50116%, 86.657715%)" offset="0.328125"/><stop stop-opacity="1" stop-color="rgb(77.351379%, 96.2677%, 86.787415%)" offset="0.332031"/><stop stop-opacity="1" stop-color="rgb(77.16217%, 96.035767%, 86.917114%)" offset="0.335938"/><stop stop-opacity="1" stop-color="rgb(76.972961%, 95.803833%, 87.045288%)" offset="0.339844"/><stop stop-opacity="1" stop-color="rgb(76.783752%, 95.571899%, 87.174988%)" offset="0.34375"/><stop stop-opacity="1" stop-color="rgb(76.594543%, 95.33844%, 87.304688%)" offset="0.347656"/><stop stop-opacity="1" stop-color="rgb(76.405334%, 95.106506%, 87.434387%)" offset="0.351563"/><stop stop-opacity="1" stop-color="rgb(76.216125%, 94.873047%, 87.564087%)" offset="0.355469"/><stop stop-opacity="1" stop-color="rgb(76.026917%, 94.641113%, 87.693787%)" offset="0.359375"/><stop stop-opacity="1" stop-color="rgb(75.837708%, 94.40918%, 87.823486%)" offset="0.363281"/><stop stop-opacity="1" stop-color="rgb(75.648499%, 94.177246%, 87.953186%)" offset="0.367188"/><stop stop-opacity="1" stop-color="rgb(75.45929%, 93.943787%, 88.08136%)" offset="0.371094"/><stop stop-opacity="1" stop-color="rgb(75.270081%, 93.711853%, 88.21106%)" offset="0.375"/><stop stop-opacity="1" stop-color="rgb(75.080872%, 93.478394%, 88.340759%)" offset="0.378906"/><stop stop-opacity="1" stop-color="rgb(74.891663%, 93.24646%, 88.470459%)" offset="0.382812"/><stop stop-opacity="1" stop-color="rgb(74.702454%, 93.014526%, 88.600159%)" offset="0.386719"/><stop stop-opacity="1" stop-color="rgb(74.513245%, 92.782593%, 88.729858%)" offset="0.390625"/><stop stop-opacity="1" stop-color="rgb(74.324036%, 92.549133%, 88.858032%)" offset="0.394531"/><stop stop-opacity="1" stop-color="rgb(74.134827%, 92.3172%, 88.987732%)" offset="0.398438"/><stop stop-opacity="1" stop-color="rgb(73.945618%, 92.08374%, 89.117432%)" offset="0.402344"/><stop stop-opacity="1" stop-color="rgb(73.756409%, 91.851807%, 89.247131%)" offset="0.40625"/><stop stop-opacity="1" stop-color="rgb(73.5672%, 91.619873%, 89.376831%)" offset="0.410156"/><stop stop-opacity="1" stop-color="rgb(73.377991%, 91.387939%, 89.506531%)" offset="0.414063"/><stop stop-opacity="1" stop-color="rgb(73.188782%, 91.15448%, 89.634705%)" offset="0.417969"/><stop stop-opacity="1" stop-color="rgb(72.999573%, 90.922546%, 89.764404%)" offset="0.421875"/><stop stop-opacity="1" stop-color="rgb(72.810364%, 90.690613%, 89.894104%)" offset="0.425781"/><stop stop-opacity="1" stop-color="rgb(72.621155%, 90.458679%, 90.023804%)" offset="0.429688"/><stop stop-opacity="1" stop-color="rgb(72.431946%, 90.22522%, 90.153503%)" offset="0.433594"/><stop stop-opacity="1" stop-color="rgb(72.242737%, 89.993286%, 90.283203%)" offset="0.4375"/><stop stop-opacity="1" stop-color="rgb(72.053528%, 89.759827%, 90.411377%)" offset="0.441406"/><stop stop-opacity="1" stop-color="rgb(71.864319%, 89.527893%, 90.541077%)" offset="0.445313"/><stop stop-opacity="1" stop-color="rgb(71.67511%, 89.295959%, 90.670776%)" offset="0.449219"/><stop stop-opacity="1" stop-color="rgb(71.485901%, 89.064026%, 90.800476%)" offset="0.453125"/><stop stop-opacity="1" stop-color="rgb(71.295166%, 88.830566%, 90.930176%)" offset="0.457031"/><stop stop-opacity="1" stop-color="rgb(71.105957%, 88.598633%, 91.059875%)" offset="0.460938"/><stop stop-opacity="1" stop-color="rgb(70.916748%, 88.365173%, 91.189575%)" offset="0.464844"/><stop stop-opacity="1" stop-color="rgb(70.727539%, 88.13324%, 91.319275%)" offset="0.46875"/><stop stop-opacity="1" stop-color="rgb(70.53833%, 87.901306%, 91.447449%)" offset="0.472656"/><stop stop-opacity="1" stop-color="rgb(70.349121%, 87.669373%, 91.577148%)" offset="0.476563"/><stop stop-opacity="1" stop-color="rgb(70.159912%, 87.435913%, 91.706848%)" offset="0.480469"/><stop stop-opacity="1" stop-color="rgb(69.970703%, 87.203979%, 91.836548%)" offset="0.484375"/><stop stop-opacity="1" stop-color="rgb(69.781494%, 86.97052%, 91.966248%)" offset="0.488281"/><stop stop-opacity="1" stop-color="rgb(69.592285%, 86.738586%, 92.095947%)" offset="0.492188"/><stop stop-opacity="1" stop-color="rgb(69.403076%, 86.506653%, 92.224121%)" offset="0.496094"/><stop stop-opacity="1" stop-color="rgb(69.213867%, 86.274719%, 92.353821%)" offset="0.5"/><stop stop-opacity="1" stop-color="rgb(69.024658%, 86.04126%, 92.483521%)" offset="0.503906"/><stop stop-opacity="1" stop-color="rgb(68.835449%, 85.809326%, 92.61322%)" offset="0.507812"/><stop stop-opacity="1" stop-color="rgb(68.64624%, 85.575867%, 92.74292%)" offset="0.511719"/><stop stop-opacity="1" stop-color="rgb(68.457031%, 85.343933%, 92.87262%)" offset="0.515625"/><stop stop-opacity="1" stop-color="rgb(68.267822%, 85.112%, 93.000793%)" offset="0.519531"/><stop stop-opacity="1" stop-color="rgb(68.078613%, 84.880066%, 93.130493%)" offset="0.523438"/><stop stop-opacity="1" stop-color="rgb(67.889404%, 84.646606%, 93.260193%)" offset="0.527344"/><stop stop-opacity="1" stop-color="rgb(67.700195%, 84.414673%, 93.389893%)" offset="0.53125"/><stop stop-opacity="1" stop-color="rgb(67.510986%, 84.181213%, 93.519592%)" offset="0.535156"/><stop stop-opacity="1" stop-color="rgb(67.321777%, 83.94928%, 93.649292%)" offset="0.539063"/><stop stop-opacity="1" stop-color="rgb(67.132568%, 83.717346%, 93.777466%)" offset="0.542969"/><stop stop-opacity="1" stop-color="rgb(66.943359%, 83.485413%, 93.907166%)" offset="0.546875"/><stop stop-opacity="1" stop-color="rgb(66.75415%, 83.251953%, 94.036865%)" offset="0.550781"/><stop stop-opacity="1" stop-color="rgb(66.564941%, 83.02002%, 94.166565%)" offset="0.554688"/><stop stop-opacity="1" stop-color="rgb(66.375732%, 82.788086%, 94.296265%)" offset="0.558594"/><stop stop-opacity="1" stop-color="rgb(66.186523%, 82.556152%, 94.425964%)" offset="0.5625"/><stop stop-opacity="1" stop-color="rgb(65.997314%, 82.322693%, 94.555664%)" offset="0.566406"/><stop stop-opacity="1" stop-color="rgb(65.808105%, 82.090759%, 94.685364%)" offset="0.570313"/><stop stop-opacity="1" stop-color="rgb(65.618896%, 81.8573%, 94.813538%)" offset="0.574219"/><stop stop-opacity="1" stop-color="rgb(65.429688%, 81.625366%, 94.943237%)" offset="0.578125"/><stop stop-opacity="1" stop-color="rgb(65.240479%, 81.393433%, 95.072937%)" offset="0.582031"/><stop stop-opacity="1" stop-color="rgb(65.05127%, 81.161499%, 95.202637%)" offset="0.585938"/><stop stop-opacity="1" stop-color="rgb(64.862061%, 80.92804%, 95.332336%)" offset="0.589844"/><stop stop-opacity="1" stop-color="rgb(64.672852%, 80.696106%, 95.462036%)" offset="0.59375"/><stop stop-opacity="1" stop-color="rgb(64.483643%, 80.462646%, 95.59021%)" offset="0.597656"/><stop stop-opacity="1" stop-color="rgb(64.294434%, 80.230713%, 95.71991%)" offset="0.601562"/><stop stop-opacity="1" stop-color="rgb(64.105225%, 79.998779%, 95.849609%)" offset="0.605469"/><stop stop-opacity="1" stop-color="rgb(63.916016%, 79.766846%, 95.979309%)" offset="0.609375"/><stop stop-opacity="1" stop-color="rgb(63.726807%, 79.533386%, 96.109009%)" offset="0.613281"/><stop stop-opacity="1" stop-color="rgb(63.537598%, 79.301453%, 96.238708%)" offset="0.617188"/><stop stop-opacity="1" stop-color="rgb(63.348389%, 79.067993%, 96.366882%)" offset="0.621094"/><stop stop-opacity="1" stop-color="rgb(63.15918%, 78.83606%, 96.496582%)" offset="0.625"/><stop stop-opacity="1" stop-color="rgb(62.968445%, 78.604126%, 96.626282%)" offset="0.628906"/><stop stop-opacity="1" stop-color="rgb(62.779236%, 78.372192%, 96.755981%)" offset="0.632813"/><stop stop-opacity="1" stop-color="rgb(62.590027%, 78.138733%, 96.885681%)" offset="0.636719"/><stop stop-opacity="1" stop-color="rgb(62.400818%, 77.906799%, 97.015381%)" offset="0.640625"/><stop stop-opacity="1" stop-color="rgb(62.211609%, 77.67334%, 97.143555%)" offset="0.644531"/><stop stop-opacity="1" stop-color="rgb(62.0224%, 77.441406%, 97.273254%)" offset="0.648438"/><stop stop-opacity="1" stop-color="rgb(61.833191%, 77.209473%, 97.402954%)" offset="0.652344"/><stop stop-opacity="1" stop-color="rgb(61.643982%, 76.977539%, 97.532654%)" offset="0.65625"/><stop stop-opacity="1" stop-color="rgb(61.454773%, 76.74408%, 97.662354%)" offset="0.660156"/><stop stop-opacity="1" stop-color="rgb(61.265564%, 76.512146%, 97.792053%)" offset="0.664063"/><stop stop-opacity="1" stop-color="rgb(61.076355%, 76.278687%, 97.921753%)" offset="0.667969"/><stop stop-opacity="1" stop-color="rgb(60.887146%, 76.046753%, 98.051453%)" offset="0.671875"/><stop stop-opacity="1" stop-color="rgb(60.697937%, 75.814819%, 98.179626%)" offset="0.675781"/><stop stop-opacity="1" stop-color="rgb(60.508728%, 75.582886%, 98.309326%)" offset="0.679688"/><stop stop-opacity="1" stop-color="rgb(60.319519%, 75.349426%, 98.439026%)" offset="0.683594"/><stop stop-opacity="1" stop-color="rgb(60.13031%, 75.117493%, 98.568726%)" offset="0.6875"/><stop stop-opacity="1" stop-color="rgb(59.941101%, 74.885559%, 98.698425%)" offset="0.691406"/><stop stop-opacity="1" stop-color="rgb(59.751892%, 74.653625%, 98.828125%)" offset="0.695313"/><stop stop-opacity="1" stop-color="rgb(59.562683%, 74.420166%, 98.956299%)" offset="0.699219"/><stop stop-opacity="1" stop-color="rgb(59.373474%, 74.188232%, 99.085999%)" offset="0.703125"/><stop stop-opacity="1" stop-color="rgb(59.184265%, 73.954773%, 99.215698%)" offset="0.707031"/><stop stop-opacity="1" stop-color="rgb(58.995056%, 73.722839%, 99.345398%)" offset="0.710938"/><stop stop-opacity="1" stop-color="rgb(58.805847%, 73.490906%, 99.475098%)" offset="0.714844"/><stop stop-opacity="1" stop-color="rgb(58.616638%, 73.258972%, 99.604797%)" offset="0.71875"/><stop stop-opacity="1" stop-color="rgb(58.427429%, 73.025513%, 99.732971%)" offset="0.722656"/><stop stop-opacity="1" stop-color="rgb(58.23822%, 72.793579%, 99.862671%)" offset="0.726563"/><stop stop-opacity="1" stop-color="rgb(58.139038%, 72.671509%, 99.931335%)" offset="0.734375"/><stop stop-opacity="1" stop-color="rgb(58.039856%, 72.549438%, 100%)" offset="0.75"/><stop stop-opacity="1" stop-color="rgb(58.039856%, 72.549438%, 100%)" offset="1"/></linearGradient><clipPath id="97a57aaef9"><rect x="0" width="432" y="0" height="145"/></clipPath><clipPath id="a875b3c45e"><path d="M 0.75 0.625 L 431.984375 0.625 L 431.984375 144.371094 L 0.75 144.371094 Z M 0.75 0.625 " clip-rule="nonzero"/></clipPath><clipPath id="8e390a6478"><rect x="0" width="432" y="0" height="145"/></clipPath><clipPath id="9d00e84d6d"><rect x="0" width="432" y="0" height="145"/></clipPath><mask id="2f8b075198"><g filter="url(#0c0bd63be3)"><g transform="matrix(1, 0, 0, 1, 0.000000000000113687, 0.000000000000227374)"><g clip-path="url(#9d00e84d6d)"><g clip-path="url(#a875b3c45e)"><g transform="matrix(1, 0, 0, 1, 0.000000000000113687, 0.000000000000227374)"><g clip-path="url(#8e390a6478)"><g fill="#000000" fill-opacity="1"><g transform="translate(166.991519, 82.079548)"><g><path d="M 10.5 0 L 6.15625 0 L 6.15625 -16.90625 L 0.578125 -16.90625 L 0.578125 -20.53125 L 16.078125 -20.53125 L 16.078125 -16.90625 L 10.5 -16.90625 Z M 10.5 0 "/></g></g></g><g fill="#000000" fill-opacity="1"><g transform="translate(182.173974, 82.079548)"><g><path d="M 15.140625 0 L 13.65625 -4.890625 L 6.171875 -4.890625 L 4.6875 0 L 0 0 L 7.25 -20.609375 L 12.5625 -20.609375 L 19.828125 0 Z M 12.625 -8.53125 L 11.125 -13.3125 C 11.03125 -13.625 10.90625 -14.03125 10.75 -14.53125 C 10.601562 -15.03125 10.453125 -15.539062 10.296875 -16.0625 C 10.140625 -16.582031 10.015625 -17.035156 9.921875 -17.421875 C 9.828125 -17.035156 9.695312 -16.554688 9.53125 -15.984375 C 9.375 -15.421875 9.21875 -14.882812 9.0625 -14.375 C 8.914062 -13.875 8.8125 -13.519531 8.75 -13.3125 L 7.265625 -8.53125 Z M 12.625 -8.53125 "/></g></g></g><g fill="#000000" fill-opacity="1"><g transform="translate(200.542977, 82.079548)"><g><path d="M 11.265625 0 L 6.328125 -16.109375 L 6.203125 -16.109375 C 6.222656 -15.722656 6.253906 -15.140625 6.296875 -14.359375 C 6.335938 -13.585938 6.375 -12.765625 6.40625 -11.890625 C 6.445312 -11.023438 6.46875 -10.242188 6.46875 -9.546875 L 6.46875 0 L 2.578125 0 L 2.578125 -20.53125 L 8.5 -20.53125 L 13.359375 -4.828125 L 13.453125 -4.828125 L 18.59375 -20.53125 L 24.53125 -20.53125 L 24.53125 0 L 20.46875 0 L 20.46875 -9.71875 C 20.46875 -10.363281 20.476562 -11.101562 20.5 -11.9375 C 20.519531 -12.78125 20.550781 -13.582031 20.59375 -14.34375 C 20.632812 -15.113281 20.660156 -15.691406 20.671875 -16.078125 L 20.546875 -16.078125 L 15.265625 0 Z M 11.265625 0 "/></g></g></g><g fill="#000000" fill-opacity="1"><g transform="translate(226.183484, 82.079548)"><g><path d="M 2.578125 -20.53125 L 8.96875 -20.53125 C 11.695312 -20.53125 13.765625 -20.144531 15.171875 -19.375 C 16.578125 -18.601562 17.28125 -17.253906 17.28125 -15.328125 C 17.28125 -14.554688 17.15625 -13.851562 16.90625 -13.21875 C 16.65625 -12.59375 16.296875 -12.078125 15.828125 -11.671875 C 15.367188 -11.273438 14.800781 -11.015625 14.125 -10.890625 L 14.125 -10.75 C 14.800781 -10.613281 15.414062 -10.375 15.96875 -10.03125 C 16.519531 -9.6875 16.960938 -9.1875 17.296875 -8.53125 C 17.628906 -7.882812 17.796875 -7.023438 17.796875 -5.953125 C 17.796875 -4.703125 17.488281 -3.632812 16.875 -2.75 C 16.269531 -1.863281 15.40625 -1.179688 14.28125 -0.703125 C 13.15625 -0.234375 11.816406 0 10.265625 0 L 2.578125 0 Z M 6.9375 -12.390625 L 9.46875 -12.390625 C 10.726562 -12.390625 11.597656 -12.585938 12.078125 -12.984375 C 12.566406 -13.390625 12.8125 -13.976562 12.8125 -14.75 C 12.8125 -15.539062 12.523438 -16.101562 11.953125 -16.4375 C 11.378906 -16.78125 10.46875 -16.953125 9.21875 -16.953125 L 6.9375 -16.953125 Z M 6.9375 -8.9375 L 6.9375 -3.59375 L 9.765625 -3.59375 C 11.078125 -3.59375 11.988281 -3.84375 12.5 -4.34375 C 13.019531 -4.851562 13.28125 -5.535156 13.28125 -6.390625 C 13.28125 -6.890625 13.164062 -7.332031 12.9375 -7.71875 C 12.71875 -8.101562 12.34375 -8.398438 11.8125 -8.609375 C 11.28125 -8.828125 10.550781 -8.9375 9.625 -8.9375 Z M 6.9375 -8.9375 "/></g></g></g><g fill="#000000" fill-opacity="1"><g transform="translate(244.033094, 82.079548)"><g><path d="M 21.21875 -10.296875 C 21.21875 -8.710938 21.019531 -7.269531 20.625 -5.96875 C 20.226562 -4.675781 19.628906 -3.5625 18.828125 -2.625 C 18.023438 -1.6875 17.007812 -0.96875 15.78125 -0.46875 C 14.5625 0.03125 13.113281 0.28125 11.4375 0.28125 C 9.757812 0.28125 8.304688 0.03125 7.078125 -0.46875 C 5.859375 -0.96875 4.847656 -1.6875 4.046875 -2.625 C 3.242188 -3.5625 2.644531 -4.679688 2.25 -5.984375 C 1.863281 -7.285156 1.671875 -8.726562 1.671875 -10.3125 C 1.671875 -12.4375 2.019531 -14.285156 2.71875 -15.859375 C 3.414062 -17.441406 4.488281 -18.664062 5.9375 -19.53125 C 7.382812 -20.40625 9.226562 -20.84375 11.46875 -20.84375 C 13.695312 -20.84375 15.53125 -20.40625 16.96875 -19.53125 C 18.40625 -18.664062 19.472656 -17.441406 20.171875 -15.859375 C 20.867188 -14.273438 21.21875 -12.421875 21.21875 -10.296875 Z M 6.234375 -10.296875 C 6.234375 -8.859375 6.410156 -7.625 6.765625 -6.59375 C 7.128906 -5.5625 7.691406 -4.765625 8.453125 -4.203125 C 9.222656 -3.648438 10.21875 -3.375 11.4375 -3.375 C 12.675781 -3.375 13.675781 -3.648438 14.4375 -4.203125 C 15.207031 -4.765625 15.769531 -5.5625 16.125 -6.59375 C 16.476562 -7.625 16.65625 -8.859375 16.65625 -10.296875 C 16.65625 -12.441406 16.25 -14.128906 15.4375 -15.359375 C 14.632812 -16.597656 13.3125 -17.21875 11.46875 -17.21875 C 10.238281 -17.21875 9.238281 -16.9375 8.46875 -16.375 C 7.695312 -15.820312 7.128906 -15.03125 6.765625 -14 C 6.410156 -12.96875 6.234375 -11.734375 6.234375 -10.296875 Z M 6.234375 -10.296875 "/></g></g></g></g></g></g></g></g></g></mask><clipPath id="48f742c793"><path d="M 108.558594 0.625 L 321.78125 0.625 L 321.78125 144.371094 L 108.558594 144.371094 Z M 108.558594 0.625 " clip-rule="nonzero"/></clipPath><clipPath id="75818a1230"><rect x="0" width="432" y="0" height="145"/></clipPath><clipPath id="b6e3026d6a"><rect x="0" width="432" y="0" height="145"/></clipPath><clipPath id="f1c96d843e"><rect x="0" width="433" y="0" height="145"/></clipPath></defs><rect x="-150" width="1800" fill="#ffffff" y="-149.999993" height="1799.99992" fill-opacity="1"/><rect x="-150" width="1800" fill="#0a0a0a" y="-149.999993" height="1799.99992" fill-opacity="1"/><g transform="matrix(1, 0, 0, 1, 554, 489)"><g clip-path="url(#cf91dc9d46)"><g fill="#e7e3dd" fill-opacity="1"><g transform="translate(1.452504, 493.394096)"><g><path d="M 189.4375 0 L 184.34375 -39.71875 L 171.109375 -10.6875 C 153.453125 1.1875 131.046875 7.125 103.890625 7.125 C 79.109375 7.125 58.398438 0.164062 41.765625 -13.75 C 25.128906 -27.664062 16.8125 -47.015625 16.8125 -71.796875 C 16.8125 -101.679688 29.457031 -124.6875 54.75 -140.8125 C 80.039062 -156.9375 117.128906 -165 166.015625 -165 L 183.328125 -165 L 183.328125 -170.59375 C 183.328125 -181.457031 182.988281 -189.945312 182.3125 -196.0625 C 179.9375 -217.789062 166.015625 -228.65625 140.546875 -228.65625 C 112.367188 -228.65625 97.265625 -213.378906 95.234375 -182.828125 L 26.984375 -182.3125 C 28.003906 -212.1875 39.289062 -235.609375 60.84375 -252.578125 C 82.40625 -269.554688 109.820312 -278.046875 143.09375 -278.046875 C 210.65625 -278.046875 246.8125 -251.394531 251.5625 -198.09375 C 252.582031 -185.195312 253.09375 -171.28125 253.09375 -156.34375 L 253.09375 -68.75 C 253.09375 -48.039062 254.789062 -25.125 258.1875 0 Z M 130.875 -42.265625 C 145.8125 -42.265625 158.285156 -47.359375 168.296875 -57.546875 C 178.316406 -67.734375 183.328125 -81.820312 183.328125 -99.8125 L 183.328125 -121.703125 C 120.859375 -126.117188 89.625 -111.351562 89.625 -77.40625 C 89.625 -53.976562 103.375 -42.265625 130.875 -42.265625 Z M 130.875 -42.265625 "/></g></g></g><g fill="#e7e3dd" fill-opacity="1"><g transform="translate(255.05273, 493.394096)"><g><path d="M 39.203125 -361.3125 C 46.335938 -368.269531 55.675781 -371.75 67.21875 -371.75 C 78.757812 -371.75 88.09375 -368.269531 95.21875 -361.3125 C 102.351562 -354.351562 105.921875 -345.441406 105.921875 -334.578125 C 105.921875 -323.367188 102.351562 -314.367188 95.21875 -307.578125 C 88.09375 -300.796875 78.757812 -297.40625 67.21875 -297.40625 C 55.675781 -297.40625 46.335938 -300.796875 39.203125 -307.578125 C 32.078125 -314.367188 28.515625 -323.367188 28.515625 -334.578125 C 28.515625 -345.441406 32.078125 -354.351562 39.203125 -361.3125 Z M 102.359375 0 L 32.078125 0 L 32.078125 -270.921875 L 102.359375 -270.921875 Z M 102.359375 0 "/></g></g></g></g></g><g clip-path="url(#9d9fbb368b)"><g transform="matrix(1, 0, 0, 1, 545, 321)"><g clip-path="url(#1f157fdf0f)"><path fill="#e7e3dd" d="M 198.726562 328.382812 C 189.148438 318.804688 189.148438 303.28125 198.726562 293.703125 C 208.300781 284.125 223.832031 284.125 233.40625 293.703125 C 242.984375 303.28125 242.984375 318.804688 233.40625 328.382812 C 223.832031 337.960938 208.300781 337.960938 198.726562 328.382812 " fill-opacity="1" fill-rule="nonzero"/><g clip-path="url(#179ea794dc)"><path fill="#e7e3dd" d="M 186.820312 0.957031 C 289.460938 0.957031 372.664062 84.164062 372.664062 186.800781 C 372.664062 191.316406 372.492188 195.792969 372.175781 200.222656 C 326.832031 156.671875 256.371094 154.589844 208.644531 194.019531 L 152.617188 137.988281 C 160.730469 124.246094 158.886719 106.25 147.078125 94.4375 C 133.082031 80.445312 110.390625 80.445312 96.398438 94.4375 C 82.398438 108.4375 82.398438 131.125 96.398438 145.121094 C 108.203125 156.929688 126.203125 158.777344 139.945312 150.660156 L 195.683594 206.394531 C 152.988281 253.476562 153.242188 325.597656 196.386719 372.402344 C 193.222656 372.566406 190.03125 372.644531 186.820312 372.644531 C 84.179688 372.644531 0.976562 289.441406 0.976562 186.800781 C 0.976562 84.164062 84.179688 0.957031 186.820312 0.957031 " fill-opacity="1" fill-rule="nonzero"/></g><path fill="#e7e3dd" d="M 326.308594 200.800781 C 335.886719 210.378906 335.886719 225.90625 326.308594 235.480469 C 316.730469 245.058594 301.203125 245.058594 291.625 235.480469 C 282.046875 225.90625 282.046875 210.378906 291.625 200.800781 C 301.203125 191.226562 316.730469 191.226562 326.308594 200.800781 " fill-opacity="1" fill-rule="nonzero"/></g></g></g><g transform="matrix(1, 0, 0, 1, 551, 1080)"><g clip-path="url(#510a825ff7)"><g fill="#e7e3dd" fill-opacity="1"><g transform="translate(0.943727, 42.085887)"><g><path d="M 26.296875 -4.8125 L 26.296875 0 L 2.203125 0 L 2.203125 -4.640625 L 18.84375 -25.6875 L 3.4375 -25.6875 L 3.4375 -30.453125 L 26.078125 -30.453125 L 26.078125 -25.71875 L 9.578125 -4.8125 Z M 26.296875 -4.8125 "/></g></g></g><g fill="#e7e3dd" fill-opacity="1"><g transform="translate(31.965213, 42.085887)"><g><path d="M 17.296875 -31.0625 C 21.941406 -31.0625 25.609375 -29.625 28.296875 -26.75 C 30.992188 -23.882812 32.34375 -20.039062 32.34375 -15.21875 C 32.34375 -10.425781 30.992188 -6.585938 28.296875 -3.703125 C 25.609375 -0.816406 21.941406 0.625 17.296875 0.625 C 12.648438 0.625 8.976562 -0.816406 6.28125 -3.703125 C 3.59375 -6.585938 2.25 -10.425781 2.25 -15.21875 C 2.25 -20.039062 3.585938 -23.882812 6.265625 -26.75 C 8.941406 -29.625 12.617188 -31.0625 17.296875 -31.0625 Z M 10.921875 -6.90625 C 12.460938 -4.914062 14.585938 -3.921875 17.296875 -3.921875 C 20.003906 -3.921875 22.125 -4.921875 23.65625 -6.921875 C 25.1875 -8.921875 25.953125 -11.6875 25.953125 -15.21875 C 25.953125 -18.78125 25.1875 -21.550781 23.65625 -23.53125 C 22.125 -25.519531 20.003906 -26.515625 17.296875 -26.515625 C 14.554688 -26.515625 12.421875 -25.519531 10.890625 -23.53125 C 9.367188 -21.550781 8.609375 -18.78125 8.609375 -15.21875 C 8.609375 -11.664062 9.378906 -8.894531 10.921875 -6.90625 Z M 10.921875 -6.90625 "/></g></g></g><g fill="#e7e3dd" fill-opacity="1"><g transform="translate(69.29679, 42.085887)"><g><path d="M 30.3125 -30.453125 L 30.3125 0 L 24.265625 0 L 24.265625 -12.484375 L 10.015625 -12.484375 L 10.015625 0 L 3.921875 0 L 3.921875 -30.453125 L 10.015625 -30.453125 L 10.015625 -17.34375 L 24.265625 -17.34375 L 24.265625 -30.453125 Z M 30.3125 -30.453125 "/></g></g></g><g fill="#e7e3dd" fill-opacity="1"><g transform="translate(106.054726, 42.085887)"><g><path d="M 17.296875 -31.0625 C 21.941406 -31.0625 25.609375 -29.625 28.296875 -26.75 C 30.992188 -23.882812 32.34375 -20.039062 32.34375 -15.21875 C 32.34375 -10.425781 30.992188 -6.585938 28.296875 -3.703125 C 25.609375 -0.816406 21.941406 0.625 17.296875 0.625 C 12.648438 0.625 8.976562 -0.816406 6.28125 -3.703125 C 3.59375 -6.585938 2.25 -10.425781 2.25 -15.21875 C 2.25 -20.039062 3.585938 -23.882812 6.265625 -26.75 C 8.941406 -29.625 12.617188 -31.0625 17.296875 -31.0625 Z M 10.921875 -6.90625 C 12.460938 -4.914062 14.585938 -3.921875 17.296875 -3.921875 C 20.003906 -3.921875 22.125 -4.921875 23.65625 -6.921875 C 25.1875 -8.921875 25.953125 -11.6875 25.953125 -15.21875 C 25.953125 -18.78125 25.1875 -21.550781 23.65625 -23.53125 C 22.125 -25.519531 20.003906 -26.515625 17.296875 -26.515625 C 14.554688 -26.515625 12.421875 -25.519531 10.890625 -23.53125 C 9.367188 -21.550781 8.609375 -18.78125 8.609375 -15.21875 C 8.609375 -11.664062 9.378906 -8.894531 10.921875 -6.90625 Z M 10.921875 -6.90625 "/></g></g></g><g fill="#e7e3dd" fill-opacity="1"><g transform="translate(143.386303, 42.085887)"><g/></g></g><g fill="#e7e3dd" fill-opacity="1"><g transform="translate(155.521669, 42.085887)"><g><path d="M 20.4375 -9.171875 L 10.1875 -9.171875 L 7.140625 0 L 0.65625 0 L 11.65625 -30.453125 L 19.28125 -30.453125 L 30.046875 0 L 23.4375 0 Z M 15.359375 -25.234375 L 11.734375 -13.984375 L 18.890625 -13.984375 Z M 15.359375 -25.234375 "/></g></g></g><g fill="#e7e3dd" fill-opacity="1"><g transform="translate(188.92598, 42.085887)"><g><path d="M 14.03125 -31.0625 C 17.5 -31.0625 20.148438 -30.191406 21.984375 -28.453125 C 23.828125 -26.722656 24.925781 -24.398438 25.28125 -21.484375 L 19.0625 -21.484375 C 18.882812 -23.078125 18.351562 -24.3125 17.46875 -25.1875 C 16.59375 -26.070312 15.375 -26.515625 13.8125 -26.515625 C 12.539062 -26.515625 11.507812 -26.207031 10.71875 -25.59375 C 9.925781 -24.976562 9.53125 -24.082031 9.53125 -22.90625 C 9.53125 -21.601562 10.007812 -20.582031 10.96875 -19.84375 C 11.925781 -19.113281 13.609375 -18.472656 16.015625 -17.921875 C 19.335938 -17.148438 21.785156 -15.984375 23.359375 -14.421875 C 24.929688 -12.867188 25.71875 -10.859375 25.71875 -8.390625 C 25.71875 -5.617188 24.628906 -3.421875 22.453125 -1.796875 C 20.273438 -0.179688 17.613281 0.625 14.46875 0.625 C 10.757812 0.625 7.800781 -0.191406 5.59375 -1.828125 C 3.394531 -3.460938 2.148438 -5.851562 1.859375 -9 L 8.078125 -9 C 8.398438 -7.382812 9.132812 -6.132812 10.28125 -5.25 C 11.425781 -4.363281 12.796875 -3.921875 14.390625 -3.921875 C 15.796875 -3.921875 16.976562 -4.273438 17.9375 -4.984375 C 18.894531 -5.691406 19.375 -6.617188 19.375 -7.765625 C 19.375 -9.054688 18.910156 -10.097656 17.984375 -10.890625 C 17.054688 -11.691406 15.488281 -12.359375 13.28125 -12.890625 C 9.863281 -13.710938 7.316406 -14.804688 5.640625 -16.171875 C 3.972656 -17.535156 3.140625 -19.53125 3.140625 -22.15625 C 3.140625 -24.851562 4.195312 -27.007812 6.3125 -28.625 C 8.425781 -30.25 11 -31.0625 14.03125 -31.0625 Z M 14.03125 -31.0625 "/></g></g></g><g fill="#e7e3dd" fill-opacity="1"><g transform="translate(219.329693, 42.085887)"><g><path d="M 14.03125 -31.0625 C 17.5 -31.0625 20.148438 -30.191406 21.984375 -28.453125 C 23.828125 -26.722656 24.925781 -24.398438 25.28125 -21.484375 L 19.0625 -21.484375 C 18.882812 -23.078125 18.351562 -24.3125 17.46875 -25.1875 C 16.59375 -26.070312 15.375 -26.515625 13.8125 -26.515625 C 12.539062 -26.515625 11.507812 -26.207031 10.71875 -25.59375 C 9.925781 -24.976562 9.53125 -24.082031 9.53125 -22.90625 C 9.53125 -21.601562 10.007812 -20.582031 10.96875 -19.84375 C 11.925781 -19.113281 13.609375 -18.472656 16.015625 -17.921875 C 19.335938 -17.148438 21.785156 -15.984375 23.359375 -14.421875 C 24.929688 -12.867188 25.71875 -10.859375 25.71875 -8.390625 C 25.71875 -5.617188 24.628906 -3.421875 22.453125 -1.796875 C 20.273438 -0.179688 17.613281 0.625 14.46875 0.625 C 10.757812 0.625 7.800781 -0.191406 5.59375 -1.828125 C 3.394531 -3.460938 2.148438 -5.851562 1.859375 -9 L 8.078125 -9 C 8.398438 -7.382812 9.132812 -6.132812 10.28125 -5.25 C 11.425781 -4.363281 12.796875 -3.921875 14.390625 -3.921875 C 15.796875 -3.921875 16.976562 -4.273438 17.9375 -4.984375 C 18.894531 -5.691406 19.375 -6.617188 19.375 -7.765625 C 19.375 -9.054688 18.910156 -10.097656 17.984375 -10.890625 C 17.054688 -11.691406 15.488281 -12.359375 13.28125 -12.890625 C 9.863281 -13.710938 7.316406 -14.804688 5.640625 -16.171875 C 3.972656 -17.535156 3.140625 -19.53125 3.140625 -22.15625 C 3.140625 -24.851562 4.195312 -27.007812 6.3125 -28.625 C 8.425781 -30.25 11 -31.0625 14.03125 -31.0625 Z M 14.03125 -31.0625 "/></g></g></g><g fill="#e7e3dd" fill-opacity="1"><g transform="translate(249.733407, 42.085887)"><g><path d="M 10.015625 0 L 3.921875 0 L 3.921875 -30.453125 L 10.015625 -30.453125 Z M 10.015625 0 "/></g></g></g><g fill="#e7e3dd" fill-opacity="1"><g transform="translate(266.193154, 42.085887)"><g><path d="M 14.03125 -31.0625 C 17.5 -31.0625 20.148438 -30.191406 21.984375 -28.453125 C 23.828125 -26.722656 24.925781 -24.398438 25.28125 -21.484375 L 19.0625 -21.484375 C 18.882812 -23.078125 18.351562 -24.3125 17.46875 -25.1875 C 16.59375 -26.070312 15.375 -26.515625 13.8125 -26.515625 C 12.539062 -26.515625 11.507812 -26.207031 10.71875 -25.59375 C 9.925781 -24.976562 9.53125 -24.082031 9.53125 -22.90625 C 9.53125 -21.601562 10.007812 -20.582031 10.96875 -19.84375 C 11.925781 -19.113281 13.609375 -18.472656 16.015625 -17.921875 C 19.335938 -17.148438 21.785156 -15.984375 23.359375 -14.421875 C 24.929688 -12.867188 25.71875 -10.859375 25.71875 -8.390625 C 25.71875 -5.617188 24.628906 -3.421875 22.453125 -1.796875 C 20.273438 -0.179688 17.613281 0.625 14.46875 0.625 C 10.757812 0.625 7.800781 -0.191406 5.59375 -1.828125 C 3.394531 -3.460938 2.148438 -5.851562 1.859375 -9 L 8.078125 -9 C 8.398438 -7.382812 9.132812 -6.132812 10.28125 -5.25 C 11.425781 -4.363281 12.796875 -3.921875 14.390625 -3.921875 C 15.796875 -3.921875 16.976562 -4.273438 17.9375 -4.984375 C 18.894531 -5.691406 19.375 -6.617188 19.375 -7.765625 C 19.375 -9.054688 18.910156 -10.097656 17.984375 -10.890625 C 17.054688 -11.691406 15.488281 -12.359375 13.28125 -12.890625 C 9.863281 -13.710938 7.316406 -14.804688 5.640625 -16.171875 C 3.972656 -17.535156 3.140625 -19.53125 3.140625 -22.15625 C 3.140625 -24.851562 4.195312 -27.007812 6.3125 -28.625 C 8.425781 -30.25 11 -31.0625 14.03125 -31.0625 Z M 14.03125 -31.0625 "/></g></g></g><g fill="#e7e3dd" fill-opacity="1"><g transform="translate(296.596868, 42.085887)"><g><path d="M 27.75 -25.6875 L 17.421875 -25.6875 L 17.421875 0 L 11.34375 0 L 11.34375 -25.6875 L 1.015625 -25.6875 L 1.015625 -30.453125 L 27.75 -30.453125 Z M 27.75 -25.6875 "/></g></g></g><g fill="#e7e3dd" fill-opacity="1"><g transform="translate(327.662484, 42.085887)"><g><path d="M 20.4375 -9.171875 L 10.1875 -9.171875 L 7.140625 0 L 0.65625 0 L 11.65625 -30.453125 L 19.28125 -30.453125 L 30.046875 0 L 23.4375 0 Z M 15.359375 -25.234375 L 11.734375 -13.984375 L 18.890625 -13.984375 Z M 15.359375 -25.234375 "/></g></g></g><g fill="#e7e3dd" fill-opacity="1"><g transform="translate(361.066795, 42.085887)"><g><path d="M 30.671875 0 L 22.328125 0 L 9.796875 -23.125 C 9.941406 -20.351562 10.015625 -17.234375 10.015625 -13.765625 L 10.015625 0 L 3.921875 0 L 3.921875 -30.453125 L 12 -30.453125 L 24.796875 -6.890625 C 24.648438 -9.617188 24.578125 -12.804688 24.578125 -16.453125 L 24.578125 -30.453125 L 30.625 -30.453125 Z M 30.671875 0 "/></g></g></g><g fill="#e7e3dd" fill-opacity="1"><g transform="translate(398.177737, 42.085887)"><g><path d="M 27.75 -25.6875 L 17.421875 -25.6875 L 17.421875 0 L 11.34375 0 L 11.34375 -25.6875 L 1.015625 -25.6875 L 1.015625 -30.453125 L 27.75 -30.453125 Z M 27.75 -25.6875 "/></g></g></g></g></g><g transform="matrix(1, 0, 0, 1, 533, 1089)"><g clip-path="url(#f1c96d843e)"><g clip-path="url(#b1292668fb)"><g transform="matrix(1, 0, 0, 1, 0.000000000000113687, 0.000000000000227374)"><g clip-path="url(#b6e3026d6a)"><g clip-path="url(#8f5ea1c384)"><g mask="url(#2f8b075198)"><g transform="matrix(1, 0, 0, 1, 0.000000000000113687, 0.000000000000227374)"><g clip-path="url(#75818a1230)"><g clip-path="url(#48f742c793)"><path fill="url(#57f053f859)" d="M 108.558594 0.625 L 108.558594 144.371094 L 321.78125 144.371094 L 321.78125 0.625 Z M 108.558594 0.625 " fill-rule="nonzero"/></g></g></g></g></g></g></g></g></g></g></svg>